<?xml version="1.0" standalone="no"?><!DOCTYPE svg PUBLIC "-//W3C//DTD SVG 1.1//EN" "http://www.w3.org/Graphics/SVG/1.1/DTD/svg11.dtd"><svg class="icon" height="30" viewBox="0 0 1024 1024" version="1.1" xmlns="http://www.w3.org/2000/svg"><path d="M131.73619 496.943974C133.184099 494.135996 135.065395 491.521207 137.372583 489.21402 137.375871 489.210731 137.379159 489.207445 137.382447 489.20416 137.385732 489.20087 137.389019 489.197585 137.392306 489.194295L454.136695 172.449905C466.644369 159.942234 487.279953 160.29888 499.411255 172.430181 511.908032 184.926959 511.594001 205.50227 499.391531 217.704739L237.254834 479.841438 863.977771 479.841438C881.663159 479.841438 896 494.685188 896 511.841438 896 529.514547 881.343962 543.841438 863.977771 543.841438L237.254834 543.841438 499.391531 805.978133C511.8992 818.485803 511.542554 839.121391 499.411255 851.252689 486.914479 863.74947 466.339166 863.435435 454.136695 851.232969L137.392306 534.488576C137.389019 534.485291 137.385732 534.482001 137.382447 534.478711 137.379159 534.475426 137.37587 534.472141 137.372583 534.468851 133.871133 530.967403 131.375402 526.831744 129.8651 522.423748 128.657688 519.084476 128 515.515998 128 511.841438 128 506.462438 129.357666 501.393421 131.73619 496.943974L131.73619 496.943974Z" /></svg>